<?xml version="1.0" encoding="UTF-8"?>
<!DOCTYPE svg PUBLIC "-//W3C//DTD SVG 1.1//EN" "http://www.w3.org/Graphics/SVG/1.1/DTD/svg11.dtd">
<svg xmlns="http://www.w3.org/2000/svg" xmlns:xlink="http://www.w3.org/1999/xlink" version="1.1" width="212px" height="84px" viewBox="-0.5 -0.5 212 84"><defs><radialGradient x1="0%" y1="0%" x2="0%" y2="0%" id="mx-gradient-000000-1-05b3fd-1-r-0"><stop offset="0%" style="stop-color: rgb(0, 0, 0); stop-opacity: 1;"/><stop offset="100%" style="stop-color: rgb(5, 179, 253); stop-opacity: 1;"/></radialGradient><radialGradient x1="0%" y1="0%" x2="0%" y2="0%" id="mx-gradient-000000-1-023a52-1-r-0"><stop offset="0%" style="stop-color: rgb(0, 0, 0); stop-opacity: 1;"/><stop offset="100%" style="stop-color: rgb(2, 58, 82); stop-opacity: 1;"/></radialGradient><radialGradient x1="0%" y1="0%" x2="0%" y2="0%" id="mx-gradient-000000-1-00bbff-1-r-0"><stop offset="0%" style="stop-color: rgb(0, 0, 0); stop-opacity: 1;"/><stop offset="100%" style="stop-color: rgb(0, 187, 255); stop-opacity: 1;"/></radialGradient></defs><g><ellipse cx="104.5" cy="54" rx="82.5" ry="20" fill-opacity="0.3" fill="url(#mx-gradient-000000-1-05b3fd-1-r-0)" stroke="none" pointer-events="all"/><ellipse cx="104.26" cy="54.32" rx="103.125" ry="25" fill-opacity="0.7" fill="url(#mx-gradient-000000-1-023a52-1-r-0)" stroke="#4ba8ab" stroke-opacity="0.7" stroke-width="2" pointer-events="all"/><ellipse cx="104.25" cy="54.32" rx="93.75" ry="24.32" fill-opacity="0.5" fill="url(#mx-gradient-000000-1-00bbff-1-r-0)" stroke="none" pointer-events="all"/><path d="M 172 61 L 192 2 L 208.25 2 L 188.25 61 Z" fill-opacity="0.5" fill="#049ebc" stroke="none" pointer-events="all"/><path d="M 132 70.5 L 154 2 L 182 2 L 160 70.5 Z" fill-opacity="0.5" fill="#049ebc" stroke="none" pointer-events="all"/><path d="M 122 74 L 147 2 L 157 2 L 132 74 Z" fill-opacity="0.5" fill="#049ebc" stroke="none" pointer-events="all"/><path d="M 147 66 L 169 2 L 197 2 L 175 66 Z" fill-opacity="0.5" fill="#049ebc" stroke="none" pointer-events="all"/><path d="M 2 61 L 22 2 L 38.25 2 L 18.25 61 Z" fill-opacity="0.5" fill="#049ebc" stroke="none" transform="translate(20.13,0)scale(-1,1)translate(-20.13,0)" pointer-events="all"/><path d="M 27 70.5 L 49 2 L 77 2 L 55 70.5 Z" fill-opacity="0.5" fill="#049ebc" stroke="none" transform="translate(52,0)scale(-1,1)translate(-52,0)" pointer-events="all"/><path d="M 52 74 L 77 2 L 87 2 L 62 74 Z" fill-opacity="0.5" fill="#049ebc" stroke="none" transform="translate(69.5,0)scale(-1,1)translate(-69.5,0)" pointer-events="all"/><path d="M 12 66 L 34 2 L 62 2 L 40 66 Z" fill-opacity="0.5" fill="#049ebc" stroke="none" transform="translate(37,0)scale(-1,1)translate(-37,0)" pointer-events="all"/></g></svg>